<svg width="11" height="11" viewBox="0 0 11 11" fill="none" xmlns="http://www.w3.org/2000/svg">
<path d="M4.5 4.18404H6.5M5.5 3.13138V5.76303M6.5 10.5V8.92101C6.5 8.64183 6.39464 8.37408 6.20711 8.17667C6.01957 7.97925 5.76522 7.86835 5.5 7.86835C5.23478 7.86835 4.98043 7.97925 4.79289 8.17667C4.60536 8.37408 4.5 8.64183 4.5 8.92101V10.5M8.5 4.18404L10.26 5.31407C10.3333 5.36102 10.3938 5.42704 10.4359 5.50575C10.4779 5.58447 10.5 5.67325 10.5 5.76355V9.44734C10.5 9.72652 10.3946 9.99427 10.2071 10.1917C10.0196 10.3891 9.76522 10.5 9.5 10.5H1.5C1.23478 10.5 0.98043 10.3891 0.792893 10.1917C0.605357 9.99427 0.5 9.72652 0.5 9.44734V5.76355C0.500014 5.67325 0.522099 5.58447 0.56413 5.50575C0.606162 5.42704 0.666726 5.36102 0.74 5.31407L2.5 4.18404M2.5 10.5V3.13138C2.49996 3.05231 2.51684 2.97425 2.54938 2.903C2.58193 2.83174 2.62931 2.76912 2.688 2.71979L5.188 0.61499C5.2767 0.540456 5.38684 0.499905 5.50034 0.5C5.61383 0.500096 5.72392 0.540833 5.8125 0.615517L8.3125 2.72084C8.37097 2.77011 8.41817 2.83259 8.45063 2.90365C8.48308 2.97471 8.49995 3.05253 8.5 3.13138V10.5" stroke="black" stroke-linecap="round" stroke-linejoin="round"/>
</svg>
