<svg width="13" height="13" viewBox="0 0 13 13" fill="none" xmlns="http://www.w3.org/2000/svg">
<path d="M2.71667 5.92514L0.5 12.1668L6.74167 9.95597M1.66667 1.08347H1.6725M12.1667 4.00014H12.1725M8.08333 0.500137H8.08917M12.1667 11.0001H12.1725M12.1667 0.500137L10.86 0.937637C10.4881 1.06153 10.1707 1.31076 9.96215 1.64273C9.75361 1.97469 9.66683 2.36878 9.71667 2.75764C9.775 3.2593 9.38417 3.70847 8.87083 3.70847H8.64917C8.1475 3.70847 7.71583 4.05847 7.6225 4.54847L7.5 5.1668M12.1667 6.9168L11.6883 6.7243C11.1867 6.52597 10.6267 6.84097 10.5333 7.3718C10.4692 7.78014 10.1133 8.08347 9.69917 8.08347H9.25M5.75 0.500137L5.9425 0.978471C6.14083 1.48014 5.82583 2.04014 5.295 2.13347C4.88667 2.1918 4.58333 2.55347 4.58333 2.96764V3.4168M5.75 6.9168C6.87583 8.04264 7.40083 9.3493 6.91667 9.83347C6.4325 10.3176 5.12583 9.79264 4 8.6668C2.87417 7.54097 2.34917 6.2343 2.83333 5.75014C3.3175 5.26597 4.62417 5.79097 5.75 6.9168Z" stroke="black" stroke-linecap="round" stroke-linejoin="round"/>
</svg>
